<?xml version="1.0" encoding="utf-8"?>
<!DOCTYPE svg PUBLIC "-//W3C//DTD SVG 1.1//EN" "http://www.w3.org/Graphics/SVG/1.1/DTD/svg11.dtd">
<svg version="1.1" id="Layer_1" xmlns="http://www.w3.org/2000/svg" xmlns:xlink="http://www.w3.org/1999/xlink" x="0px" y="0px"
	 viewBox="-151.2363 -619.532 1524.4729 1512.4823" enable-background="new -151.2363 -619.532 1524.4729 1512.4823"
	 xml:space="preserve">
<path d="M1372,121.8301c-9.21-0.26-18.9299-0.1301-26.5601-6.0801c-22.6099-14.14-48.3499-22.0601-74.4299-26.47
	c9.64-13.75,22.27-26.9399,24.75-44.2c1.85-11.6001-4.53-22.05-11.77-30.4501c-10.62,12.9401-23.3,24.33-38.55,31.7001
	c-25.5599,12.76-53.53,24.3599-82.6899,22.1799c7.11-27.75,8.1799-64.75-16.7-83.98c-8.4401,9.25-12.9,21.58-21.8501,30.49
	c-27.6599,29.29-62.6899,50.3201-98.24,68.61c8.14-25.4401,17.4301-52.5499,10.54-79.4c-7.9299-34.1799-37.69-61.1599-71.99-67.28
	c-41.12-8.01-82.36-1.6499-121.87,10.8501c-21.34,6.76-42.19,15.3099-62.24,24.35c9.48-21.0699,18.63-42.9701,25.81-65.41
	c12.38-38.74,18.87-79.09,10.98-119.55c-6.39-36.8799-37.43-68.1799-74.69-73.3199c-26.47-4.11-51.82,6.34-77,12.5499
	c17.3-36.0199,38.2-70.8799,65.95-99.8699c10.75-11.65,24.37-19.8801,38.28-27.16c-20.42-25.78-57.38-24.15-86.46-17.7301
	c0.69-26.4399,7.7-52.73,19.91-76.3098c8.91-17.2002,20.59-32.9502,34.61-46.25c-8.66-5.3101-17.86-11.48-28.57-10.2402
	c-18.24,1.3301-31.1299,15.5901-46.25,24.1602c-2.96-18.8501-7.5-37.6101-15.85-54.8201c-5.44-12.51-14.64-23.4299-16.74-37.22
	l-38.97-0.04c-2.1,13.9199-11.4,24.9199-16.92,37.51c-8.48,17.0901-12.85,35.8101-15.76,54.5601
	c-12.85-7.5801-24.02-18.3699-38.54-22.78c-12.89-4.02-27.88,0.3-35.98,11.3101c12.68,10.1499,23.43,22.6099,30.8,37.1299
	c13.23,25.6501,23.85,53.79,23.16,83.0801c-28.56-6.25-66.03-8.4399-85.6,17.73c50.66,25.95,79.35,78.8,103.81,127.79
	c-26.77-8.39-54.99-18.71-83.34-12.29c-35.85,7.62-63.86,39.27-69.17,75.29c-10.79,63.1699,11.39,126.38,38.5,182.6499
	c-57.34-26.5898-121.58-48.26-185.39-35.9299c-36.75,6.4199-67.71,37.22-73.23,74.26c-3.99,24.8401,4.88,49.04,11.86,72.46
	C163.8,67.15,132.21,48.52,106.16,23.64c-3.72-3.5599-7.33-7.24-10.81-11.0599C87.3,4.27,83.53-7.29,75.44-15.39
	C51.26,3.36,51.89,39.11,58.32,66.63c0.15,0.64,0.3,1.2799,0.46,1.92C30.6,70.8201,3.62,59.64-21.26,47.7
	c-16.19-7.58-29.81-19.3999-40.98-33.24c-7.29,8.3101-13.67,18.72-12.04,30.28c2.57,17.4299,15.2,30.79,25.23,44.5
	c-26.3,4.49-52.17,12.37-74.86,26.6799c-7.54,5.78-17.13,5.3901-26.17,5.8601l-0.34,29.9399c8.73-0.51,17.98-1.33,25.39,4.2
	c23.17,14.0901,49.04,23.3401,75.93,26.8901c-9.63,13.53-21.54,26.51-25.01,43.26c-2.05,11.77,3.73,23.0399,11.78,31.22
	c13.98-16,31.54-28.7,50.89-37.75c21.92-10.25,46.14-15.8101,70.01-16.17c-6.6,28.65-7.97,66.4201,18.46,85.6901
	c7.02-15.5901,17.08-29.6301,29.8-41.0701c0.82-0.75,1.64-1.49,2.47-2.23c25.63-22.91,55.02-41.46,85.88-56.48
	c-6.64,23.9399-15.71,48.61-11.13,73.83c6.21,35.89,36.4,65.35,72.03,72.08c42.98,9.04,85.94,1.51,127.09-12
	c19.66-6.46,38.9-14.28,57.53-22.3099c-2.87,6.51-5.71,13.1-8.48,19.76c-6.17,14.7899-11.98,29.92-16.8799,45.2899
	c-12.55,39.4001-19.1201,80.3901-10.31,121.42c7.3199,39.95,44.97,72.16,85.78,71.9901c22.44,0.5999,43.64-7.8801,64.97-13.7101
	c-17.57,37.51-39.21,75.44-69.8,103.84c-10.2,9.46-21.39,17.8701-33.76,24.85c21.84,23.6,57.09,23.3,86.08,16.58
	c-1.32,45.18-20.47,91.22-54.51,121.54c8.22,5.86,17.34,12.33,28.05,11.18c18.45-1.25,31.94-15.51,46.81-24.89
	c3.08,20.82,8.35,41.5,18.28,60.17c5.1,10.84,13.84,20.6,13.71,33.24l40.34-0.13c0.21-12.51,8.69-22.14,13.75-32.98
	c9.72-18.8,15.37-39.35,18.32-60.25c14.74,9.5,28.18,23.42,46.56,24.8799c10.75,1.2401,19.95-5.27,28.18-11.22
	c-14.33-12.81-25.97-28.38-34.78-45.49c-12.07-23.44-18.81-49.77-19.83-75.84c29.25,6.13,64.88,7.11,86.55-17.13
	c-10.95-5.92-20.95-13.02-30.13-21.01c-32.8199-28.55-55.29-68.58-73.89-107.4199c21.33,5.78,42.48,14.26,65.0099,13.79
	c41.16,0.4199,78.97-32.4701,86.08-72.76C825.26,445.85,818.77,405.12,806.3,366c-6.12-19.22-13.69-38.0601-21.63-56.3101
	c-1.27-2.9199-2.55-5.83-3.84-8.72c20.09,8.52,40.9,16.89,62.16,23.6101c40.72,12.8699,83.1,19.6799,125.33,9.9199
	c38.58-8.01,69.8-43.85,70.3599-83.5501c1.1602-21.29-6.6799-41.5-12.25-61.6699c46.2101,23.6799,94.4301,52.29,119.53,99.74
	C1170.5,268.21,1169.9,232.19,1163,203.45c30.71-1.1499,60.22,10.6201,86.77,25.0601c13.36,6.98,24.28,17.5601,34.05,28.8999
	c6.9299-7.5299,13.1899-17.0399,11.99-27.7899c-1.2001-18.5-15.03-32.38-25.0601-46.85c26.8101-3.51,52.64-12.63,75.76-26.64
	c7.54-5.5699,16.96-4.92,25.8301-4.88L1372,121.8301z M91.03,227.74c-8.85-7.13-13.3701-16.8-15.22-27.3101
	c-2.29-13.0499-0.45-27.3899,2.37-39.7999c-36.44-0.4301-72.8,16.01-97.77,42.4401c-5.26-5.9102-7.53-12.9102-7.48-19.99
	c0.06-8.77,3.68-17.6602,9.58-24.7201c4.24-9.6,15.93-6.47,24.24-7.15c37.03,0.53,74.06,0.0701,111.08,0.0701
	c19.75,0,39.5,0.1299,59.24,0.61C145.29,173,108.72,191.89,91.03,227.74z M117.81,121.26c-13.28,0.01-26.56,0.04-39.84,0.04
	c-30.23,0.03-60.45-0.01-90.67-0.3701c-11.9-14.3899-21.62-35.6299-6.7599-51.74c24.71,27.1101,61.2,41.8,97.4299,43.6001
	c-3.22-14.48-4.49-30.15-1.03-44.51c2.1-8.75,5.96-17.01,12.2-24.22c10.33,13.8699,19.75,28.77,33.71,39.3499
	c17.13,15.03,37.56,25.27,56.32,37.9501C158.72,121.25,138.27,121.24,117.81,121.26z M513.08-387.07
	c17.99-17.8999,45.14-16.75,68.26-12.5898c-1.3701-35.76-16.01-72.1702-42.9901-96.28c15.67-16.1402,37.47-5.5601,51.77,6.47
	c0,63.6,0.77,127.28-0.43,190.8799C569.44-332,548.62-367.76,513.08-387.07z M440.32-92.0901
	c-1.8-16.2699,4.75-36.3599,21.37-42.3999c11.13-4.36,20.13,4.89,29.46,9.21c12.46-5.1399,6.38-23.25,1.16-32.2
	c-9.6-17.4299-30.15-20.5601-48.05-22.4c30.62-41.24,87.36-33.5299,129.97-52.5499c6.56,23.77,16.96,47.1499,16.15,72.2899
	c-0.64,36.87,0.73,73.83-0.6,110.7101c-11.14,14.26-24.88,26.8499-32.51,43.5499c-0.72,10.9601,1.42,21.84,1.89,32.8099
	C548.8,17.72,542.07,2.51,527.21-0.01c-18.29-4.28-37.17-4.4099-55.8-3.3c-3.42-8.1099-7.05-16.1899-10.59-24.33
	C451.78-48.4199,443.3-69.53,440.32-92.0901z M270.68-3.35c4.33-8.05,11.78-13.58,19.28-18.5C291.2-6.78,293.81,9.8401,306.4,19.94
	c10.3199,10.2001,25.74,11.6501,39.06,7.28c-2.4-11.8999-16.02-21.45-10.15-34.3799c7.24-18.6802,30.62-23.6901,48.48-20.4701
	c26.37,4.5699,51.58,14.34,75.98,25.11c1.63,0.72,3.25,1.4399,4.87,2.17l2.44,2.86c-0.34,21.46-1.8,44.0701,7.11,64.2
	c6.68,8.39,15.81,14.3501,23.51,21.76c-10.83-0.48-21.67-2.0601-32.5-1.6699c-17.69,7.28-30.62,21.79-44.88,33.8699
	c-32.12,1.76-64.41-0.0798-96.57,0.6401c-3.05,0.1799-6.08,0.23-9.1,0.1599c-25.9-0.55-50.94-9.6299-74.76-19.21
	C253.85,68.12,251.37,28.8101,270.68-3.35z M374.92,300.93c-15.63,0.77-34.73-6.0898-39.91-22.23
	c-4.8-12.29,6.59-21.84,11.56-31.8599c-17.34-10.6201-39.74-0.26-49.08,16.23c-6.38,9.2899-5.95,20.9399-6.51,31.73
	c-9.5-5.27-17.51-12.97-22.48-22.7001c-16.87-31.7699-15.33-69.25-28.69-102.31c24.12-8.8301,48.87-18.6201,74.89-18.6201
	c1.61,0,3.23,0.04,4.85,0.1201c32.72,0.52,65.48-0.47,98.2,0.3C434.45,160.97,446.31,179,465.24,185.6
	c11.48,1.11,22.91-1.5,34.35-2.49c-8.82,8.01-19.7401,14.2201-26.34,24.33c-7.62,20.6401-6.85,43.0801-6.25,64.7101
	c-3.72,1.49-7.45,3.0199-11.18,4.5499C429.69,287.44,403.29,298.5201,374.92,300.93z M589.78,760.19
	c-12.1201,15.16-35.67,22.96-51.86,8.95c26.93-24.71,42.82-61.41,42.91-97.9c-12.4,2.99-26.44,4.67-39.34,2.42
	c-10.59-1.86-20.41-6.36-27.94-14.97c2.23-1.17,4.4-2.42,6.51-3.72c31.73-19.5699,51-53.18,69.68-84.46
	C590.59,633.73,590.68,697.02,589.78,760.19z M573.03,504.9099C531.92,484.48,473.42,494.63,445.5,451.8001
	c19.27-0.0801,40.43-7.02,48.95-25.91c3.81-8.65,7.84-24.41-3.38-28.9501c-8.83,4.5-17.22,14.5601-28.14,10.1501
	c-19.44-5.9501-25.7-30.0601-21.89-48.05c2.4-12.46,6.1-24.5801,10.52-36.45c5.69-15.27,12.56-30.1401,19.38-44.8301
	c21.84-3.9,46.81,1.62,67.32-9.8501c7.79-6.8099,13.79-15.3399,21.03-22.7c-0.65,10.49-2.36,20.9401-2.19,31.52
	c6.64,17.21,20.26,30.15,32.04,43.9c2.95,33.7001,0.13,67.7899,1.2,101.62C592.31,450.86,583.44,478.6501,573.03,504.9099z
	 M547,151.89c2.99-0.26,8.99-0.8099,11.99-1.0699c6.68,13.8799,16.87,25.8699,31,32.5499c0.05,3.08,0.18,9.25,0.22,12.33
	C569.31,189.36,553.08,172.8301,547,151.89z M572.52,101.48c-8.39,7.63-10.79,26.47-25.52,18.51
	c6.55-20.4299,22.14-37.99,43.68-42.5701C594.19,90.5601,579.67,93.95,572.52,101.48z M842.02-28.11
	c17.56-2.4801,40.65,4.59,45.1,23.9401c3.6,11.3099-7.07,19.75-12.08,28.6099c15.08,11.1801,36.11,3.2101,46.08-10.96
	c8.44-9.8101,9.25-23.13,10.75-35.33c41.29,27.3199,32.47,83.6801,49.81,124.41c-24.69,9.4199-50.36,19.0599-77.03,19.0599
	c-2.3,0-4.6-0.0699-6.91-0.22c-23.57-0.63-47.2,0.24-70.76,0.0099c-8.63-0.0898-17.25-0.3198-25.85-0.8198
	C786.99,108.38,773.97,94.03,756.33,86.75c-10.79-0.25-21.54,1.2-32.33,1.63c9.2-9.98,24.45-16.23,26.98-30.88
	c4.79-17.9,3.76-36.53,3.89-54.86l2.23-2.87C784.21-12.47,812.35-24.12,842.02-28.11z M631.75-489.6001
	c9.46-6.0798,18.63-14.22,30.41-14.8999c0.63-0.0701,1.25-0.1099,1.8701-0.1099c7.43,0,13.71,4.9897,19.8799,8.6699
	C656.2-472.4199,641.73-435.55,640.4-399.79c8.15-1.4199,16.7599-2.47,25.29-2.47c15.75,0,31.21,3.6001,42.93,15.1899
	c-35.37,19.3101-56.27,54.77-76.4,88.1301C631.02-362.4499,631.96-426.04,631.75-489.6001z M647.51-232.39
	c42.48,18.9801,99.18,11.4,129.76,52.29c-12.68,3.47-27.54,2.0599-37.81,11.5699C726.22-158.47,719.11-139.97,726.61-124.3401
	c11.05-3.3799,20.81-14.5099,33.19-10.1499c17.21,5.5701,23.25,26.6,21.63,42.8301c-3.09,21.46-10.98,41.6099-19.55,61.4399
	c-3.9,9.02-7.93,17.97-11.72,26.95c-21.8799-1.28-44.84-1.58-65.48,6.73c-8.22,6.8101-14.39,15.71-21.97,23.17
	c0.34-10.84,2.49-21.67,1.46-32.51c-7.03-16.9601-21.46-28.9501-32.04-43.47c-1.19-36.91,0.05-73.92-0.55-110.83
	C630.38-185.3201,640.91-208.6999,647.51-232.39z M674.49,121.3101c-2.83,0.1299-8.52,0.4299-11.35,0.5999
	c-6.47-14.9399-19.06-24.75-31.18-34.5099c-0.21-2.4501-0.6-7.37-0.77-9.85C652.95,82.0401,669.09,100.24,674.49,121.3101z
	 M673.59,150.73c-3.25,22.02-21.2,38.3301-41.76,44.76c-0.04-3.04-0.12-9.0801-0.17-12.12c14.35-6.2999,23.3-18.89,31.27-31.6901
	C665.58,151.4199,670.93,150.95,673.59,150.73z M705.07,657.09c1.08,0.62,2.18,1.23,3.29,1.8199
	c-10.91,11.91-26.04,15.76-41.5,15.76c-8.94,0-17.98-1.29-26.37-3.04c0.85,36.36,16.31,72.89,43.29,97.55
	c-5.9301,5.03-12.96,7.24-20.05,7.24c-12.1,0-24.36-6.45-31.55-16.32c-0.9-63.08-0.65-126.29,0-189.41
	C651.22,603.21,671.47,637.75,705.07,657.09z M781.6,366.45c1.07,16.5701-6.73,38.16-25.23,41.1101
	C746.22,410,738.9,400.71,730.42,396.98c-11.18,4.5901-7.07,20.17-3.3,28.87c8.78,18.7101,29.51,25.78,48.87,26.12
	c-27.93,42.79-86.34,32.55-127.41,53.02c-8.78-23.72-18.12-48.35-16.96-74.05c0.77-36.78-1.16-73.6599,0.99-110.3599
	c11.47-13.8701,25.82-26.4202,31.86-43.8901c0.47-10.5399-1.46-20.99-2.14-31.48c8.43,7.8801,14.43,18.71,24.49,24.6701
	c20.47,7.62,42.66,6.4601,64.11,6.59c0.36,0.92,0.72,1.8401,1.09,2.76c4.4,11.03,9.32,21.96,13.9,33
	C773.16,329.72,779.54,347.5,781.6,366.45z M931.57,295.19c-1.15-12.8499-1.8-27.03-10.96-37.09
	c-10.32-13.49-30.24-20.9401-45.48-11.09c4.92,9.9299,16.44,19.6499,11.48,31.8201c-5.14,16.3099-24.5,22.6499-40.09,22.1399
	c-28.22-2.3999-54.4-13.61-80.47-24.1c-3.73-1.5-7.45-2.98-11.18-4.42c0.05-21.7999,1.2-44.3699-6.42-65.19
	c-6.64-10.0601-17.73-16.1001-26.64-23.98c11.44,0.8999,22.91,3.3899,34.39,2.27c16.19-6.46,28.69-19.1801,41.46-30.6201
	c4.66-5.0898,12.33-3,18.41-3.6799c3.59,0.03,7.18,0.05,10.76,0.0701c25.98,0.1599,51.94,0.0499,77.91-0.03c0.51,0,1.01,0,1.52,0
	c26.3-0.3801,51.14,9.8099,75.55,18.3699C964.55,210.95,972.69,266.92,931.57,295.19z M1098.72,83.5801
	C1112.6,72.88,1122.23,58.15,1132.26,44.01c16.78,18.85,16.95,45.48,11.26,68.7c36.27-1.59,72.8899-16.4099,97.6-43.47
	c15.16,16.0601,5.01,37.3-6.73,51.73c-30.29,0.3501-60.59,0.3601-90.88,0.3301c-33.73-0.04-67.46-0.15-101.1899,0.0599
	C1061.12,108.77,1081.64,98.6599,1098.72,83.5801z M1241.25,203.2c-24.63-26.73-60.86-42.1-97-43.1299
	c3.8101,22.6599,6.4199,51.3499-13.6699,67.49c-17.77-35.7101-54.26-54.73-86.1602-75.67c33.28-0.6801,66.5701-0.64,99.8601-0.53
	c27.71,0.08,55.4099,0.2201,83.09,0.02c10.11-0.86,13.7899,10.62,18.16,17.64C1252.25,180.2,1248.53,193.39,1241.25,203.2z
	 M873.93-154.1c13.53-8.01,32.68,3.98,31.48,19.61c-0.13,14.61-17.31,25.53-30.41,18.38C859.67-122.45,859.11-146.73,873.93-154.1z
	 M905.23,405.46c2.79,16.41-17.81,29.68-31.73,20.56c-14.17-7.15-14-29.94,0.17-37C886.09,381.91,904.55,390.82,905.23,405.46z
	 M1056.58-305.79c-28.9099,18.8-58.6299,36.32-88.6,53.45c-14.22,9.42-33.67,20.64-32.42,40.3c-0.73,8.69,9.8,8.99,15.58,11.39
	c2.45,5.61,2.57,16.36,11.22,15.37c17.48,2.02,28.4-14.6,37.09-27.06C1018.42-243.52,1035.55-275.85,1056.58-305.79z M890.08-270.33
	c-22.49,15.46-53.19-3.13-60.95-26.64c-19.91-41.58,7.93-96.48,53.06-105.09c17.35-4.28,34.39,2.1,50.45,7.96
	c-7.92-12.67-20.04-24.45-19.48-40.55c12.76-1.76,26.38-3.09,38.46,2.65c16.65,6.68,26.72,22.53,35.8,37.09
	c3.47-12.93,10.58-24.24,16.49-36.06c5.9901-23.04,8.82-47.54,4.28-71.09c-7.37-29.59-30.02-56.1-59.83-64.5
	c-32.5-9.42-70.28,0.47-93.45,25.27c-17.73,19.62-24.53,53.06-5.78,74.22c10.54,13.7,34.52,19.01,46.43,4.5
	c6.08-6.34,2.57-15.47,1.54-22.96c-5.27-1.41-10.58-1.97-15.89-1.54c-3.47,4.5-6.38,9.29-8.82,14.43
	c0.13-5.31,0.25-10.62,0.43-15.97c7.58-3.09,17.21-7.28,24.41-0.82c13.87,10.41,6.59,33.41-8.95,37.99
	c-22.7,9.55-47.54-9.21-53.45-31.13c-3.77-18.85-0.73-39.28,10.88-54.95c33.27-46.55,111.69-51.22,147.36-4.88
	c28.91,31.35,25.14,77,15.72,115.37c15.33,12.76,23.1201,33.32,17.43,52.89c-1.6699,17.73-15.93,29.42-25.05,43.34
	c-0.73,11.18,13.78,16.57,20.81,7.92c15.76-10.7,12.16-31.05,12.12-47.32c-0.73-21.11,10.5801-43,29.6801-52.68
	c10.15,9.77,14.13,23.04,15.2899,36.75c10.66-15.72,20.17-33.7,38.03-42.44c34.04-14.82,71.13-22.14,103.55-40.86
	c-17.1801,29.55-25.65,62.74-37.05,94.65c-7.36,21.92-27.1899,35.24-46.38,46.04c14.14,2.18,28.78,5.91,37.35,18.45
	c-8.3999,8.48-16.6599,17.82-27.97,22.44c-15.12,6.47-31.86,4.63-47.83,4.37c-13.0701-0.55-25.3101,8.83-29.55,20.9
	c-0.48,7.92,11.17,17.09,17.34,8.95c13.0601-11.6,28.14-22.65,46.51-22.74c16.02-3.21,30.28,5.61,42.87,14.26
	c37.5601-12.16,82.05-22.31,117.13,2.19c49.55,28.69,55.7101,103.89,17.26,144.19c-17.09,17.9-44.84,28.27-68.7799,18.85
	c-16.28-6.81-30.4501-23.17-28.4-41.72c0.09-3.17,0.83-6.33,2.1-9.28c4.0699-9.54,13.58-16.95,24.24-15.77
	c11.48,1.03,21.29,15.29,14.6901,25.78c-2.53,5.91-9.25,6.77-14.52,8.82c6.8999-7.66,14.14-15.8,9.6-26.76
	c-9.77-3.13-22.53-3.73-27.88,6.89c-10.71,18.03,3.59,39.87,21.0699,46.98c26.4601,10.07,57.04-3.98,72.11-26.68
	c14.9901-23.17,20.65-53.02,12.2101-79.57c-9.25-32.68-40.26-57.04-73.66-60.81c-22.0599-2.31-44.2,2.31-65.22,8.73
	c-7.67,1.46-11.9501,8.4-17.65,12.98c-6.76,6.3-16.4,7.41-24.79,10.41c14.64,9.12,30.14,19.23,37.3401,35.63
	c5.9099,12.08,4.58,25.82,2.83,38.71c-0.86,0.08-1.72,0.12-2.55,0.12c-15.09,0-26.1399-12.3-38.35-19.65
	c7.0601,18.03,13.66,37.91,6.64,57.09c-12.47,41.97-64.5,65.61-104.2,46.55c-20.4301-7.49-35.46-29.59-30.66-51.52
	c3.29-14.39,20.6-23.59,33.96-16.31c5.2201,10.96-15.6799,9.8-12.98,20.68c1.16,19.53,26.9,28.95,42.87,20
	c22.0601-9.12,31.01-38.71,18.16-58.76c-12.38-24.88-43.34-35.97-69.29-27.4c-15.68,3.64-28.91,13.31-40.09,24.49
	c-18.41,18.63-52.07,23.09-72.33,5.1c-16.32-14.13-18.67-39.02-10.54-58.12c6.73-16.48,23.04-26.33,30.62-42.31
	c11.87-23.34,12.64-55.67-7.71-74.64c-15.88-17.52-46.08-23.17-63.59-4.93c-17.77,14.18-16.62,47.62,6.59,55.2
	c10.54,4.46,14.61-7.19,18.72-14.21C905.71-298.77,899.92-276.5,890.08-270.33z M1011.74,505.12
	c-11.86-18.03-21.54-43.9-45.39-47.92c-9.89-1.97-13.41,7.28-15.25,15.03c-5.57,2.61-14.43,3.21-15.46,10.83
	c-2.48,17.43,13.53,29.21,26.3,37.73c31.73,19.62,65.14,36.71,95.2,59.06C1041.64,555.14,1025.58,530.81,1011.74,505.12z
	 M850.03,815.37c-21.4399-23.6-24.66-66.36,2.96-86.06c15.17-13.02,43.77-9.5,50.56,9.98h0.06c0.09,0.24,0.13,0.46,0.21,0.7
	c0.03,0.11,0.09,0.21,0.12,0.32c0.05,0.17,0.09,0.35,0.13,0.52c0.48,1.6,0.81,3.13,0.85,4.53c0.01,0.03,0.01,0.06,0.02,0.1
	c-0.01-0.01-0.02-0.02-0.02-0.02c0.01,0.38-0.06,0.73-0.08,1.09c0.06-0.06,0.12-0.12,0.18-0.17c-0.08,0.2-0.14,0.42-0.22,0.6299
	c-0.12,1.14-0.36,2.23-0.86,3.2l-0.2,0.09c-1.51,5.04-2.98,10.35-8.18,12.65c-6.56,3.86-14.35,0.34-21.33-0.17
	c-1.07-5.44-2.06-10.84-2.87-16.27c3.77,4.83,7.45,9.8,11.22,14.6801c6.72-0.26,11.54-4.23,16.06-8.63
	c2.3-4.23,2.57-8.63,0.54-13.25c-7.19-7.77-15.23-15.4901-26.71-13.23c-27.3199,4.45-41.28,36.66-31.94,61.32
	c0.77,4.74,2.78,8.9,5.2401,12.84c2.46,3.94,5.36,7.66,7.9,11.51L871.76,827.8l-0.01,0.02c8.34,3.31,15.92,9,24.92,10.78
	c36.1,11.78,79.27-2.74,99.01-35.63c20.26-29.63,16.41-68.09,7.84-101.02c-5.7401-10.97-12.5-21.42-16.1-33.36
	c-12.08,18.32-27.62,38.62-51.48,39.99c-7.66-0.51-22.22,3.22-23.04-8c3.47-13.02,12.98-23.04,19.87-34.31
	c-22.01,10.11-48.61,14.01-70.32,0.9c-33.92-18.5-49.89-63.81-32.8-98.97c7.62-21.11,31.73-36.27,53.96-29.33
	c15.37,5.26,22.7,27.92,7.28,37.6c-2.44-5.83-4.75-11.65-7.15-17.48c-17.6-3.47-32.29,13.45-30.58,30.32
	c1.33,21.8,23.08,38.89,44.45,36.58c25.66-3.73,47.88-27.15,47.41-53.58c1.37-22.82-9.38-44.79-25.61-60.34
	c-18.84-17.94-24.37-50.28-8.09-71.56c13.27-17.65,38.97-21.37,58.67-13.23c16.74,5.99,26.46,22.35,42.05,30.36
	c25.36,13.7,62.06,13.23,80.47-11.69c16.49-17.95,16.02-49.38-4.92-63.77c-15.63-13.79-46.72-7.62-50.02,14.52
	c-2.3199,10.53,10.75,12.29,16.91,17.47c-14.9,17.95-42.65-1.45-38.75-21.71c1.11-32.63,37.3-49.77,66.2001-47.88
	c36.62,1.16,70.9199,32.38,72.3799,69.59c1.1101,13.96-5.0099,26.81-9.1599,39.74c12.33-7.83,23.9399-18.15,39.1-19.82
	c4.75,14.38,4.0599,30.74-3.6901,43.98c-7.9199,14.17-22.4399,22.48-34.99,31.99c15.38,1.41,26.9801,10.62,37.52,20.94
	c26.6801,8.44,56.02,16.49,83.72,7.79c29.64-8.6,55.16-32.84,61.4601-63.63c9.76-40.73-11.1801-92.98-55.12-102.66
	c-25.27-8.56-59.61,12.21-54.86,40.81c0.8199,12.34,17.0499,23.9,27.71,14.74c6.8099-3.56,3.5599-11.99,3.64-17.86
	c-3.47-0.82-10.41-2.44-13.87-3.26c3.0399-1.75,6.08-3.47,9.16-5.22c7.5399,4.75,14.6,13.28,10.0199,22.57
	c-5.3099,15.24-28.01,14.99-36.1,2.4c-1.27-1.74-2.3199-3.56-3.16-5.44c-7.2899-16.23,0.88-36.7,15.5801-46.34
	c22.4-15.97,54.09-8.82,73.7899,8.27c26.16,22.78,34.9401,60.89,27.88,94.04c-7.71,34.43-38.0699,61.11-72.0399,68.48
	c-28.8201,5.44-57.77-2.7-85.0901-11.39c-13.75,11-31.3899,19.14-49.2899,13.92c-18.03-1.97-30.75-15.42-44.7101-25.36
	c-7.11-0.08-15.21,6.73-11.87,14.31c6.04,14.34,22.4401,21.2,37.3101,18.5c23.34-3.39,48.3,4.15,63.29,23
	c6.2999,4.32-1.41,10.23-4.7101,13.31c-8.22,5.79-18.6699,6.56-28.01,9.64c19.7001,10.88,39.66,25.14,46.6001,47.75
	c10.49,31.86,20.38,64.03,36.1399,93.79c-30.75-20.64-68.0099-26.51-101.4099-41.16c-18.8401-7.75-28.3101-26.55-39.78-42.01
	c-2.1,13.75-5.7,28.31-18.6801,35.93c-8.35-8.86-17.86-17.3-22.35-28.95c-6.98-16.4-3.0399-34.56-4.24-51.77
	c-1.0699-12.38-11.86-19.79-21.2-26.13c-5.14,3.56-9.55,7.97-13.28,12.98c17.22,18.46,32.98,42.01,27.28,68.61
	c-1.24,12.67-13.02,20.17-17.51,31.04c7.71,35.76,12.42,77.01-12.04,107.75c-27.39,41.45-87.7,48.5-128.15,22.71l-0.06,0.1
	c-0.73-0.47-1.39-0.98-2.1-1.47c-0.49-0.33-1.02-0.61-1.5-0.95c-0.02-0.04-0.04-0.09-0.05-0.1299c-5.94-4.27-11.1-9-15.5-14.2
	L850.03,815.37z M853.84,358.61c1.89,13.45-15.9301,22.01-25.78,13.36c-2.76-1.95-4.53-4.77-5.37-7.86
	c-1.87-6.87,0.89-15.13,7.69-18.35c2.25-1.16,4.72-1.7,7.18-1.7C845.63,344.06,853.65,349.85,853.84,358.61z M837.74-71.67
	c-5.5,0-10.93-2.54-13.45-7.87c-2.25-3.44-2.65-7.68-1.66-11.6c1.21-4.73,4.45-8.98,8.94-10.76c12.25-6.21,27.5,8.48,20.9,20.82
	C850.25-74.92,843.96-71.67,837.74-71.67z M383.85,343.48c10.62-0.01,18.02,12.59,14.75,22.16c-1.17,3.42-3.69,6.45-7.92,8.39
	c-18.24,9.34-32.5-19.66-14.34-28.48C378.95,344.11,381.48,343.48,383.85,343.48z M370.68-78.47c-5.99-7.79-1.97-19.87,6.81-23.6
	c13.15-6.29,27.71,10.24,19.96,22.49C392.69-69.26,376.42-68.92,370.68-78.47z M358.65,405.42c2.44,15.5-15.76,28.91-29.72,21.58
	c-14.91-5.73-17.05-28.86-3.13-37.13C338.31,381.1,357.66,390.05,358.65,405.42z M329.4-154.96c13.57-6.29,30.53,5.44,29.29,20.35
	c0.64,16.27-21.5,27.32-33.87,16.31C311.67-127.21,314.49-149.52,329.4-154.96z M233.9,469.36c-15.21,17.09-24.84,38.11-36.41,57.69
	c-9.93,18.28-22.44,35.03-33.1,52.84c28.44-21.07,59.7-37.68,90.06-55.67c13.49-9.08,31.18-19.27,31.91-37.52
	c1.45-9.55-9-11.77-15.55-14.81c-2.57-4.8-2.87-12.21-8.82-14.14C251.2,454.93,240.71,461.44,233.9,469.36z M377.75,547.94
	c22.1,20.86,27.06,56.66,14.13,83.77c-11.9,25.83-38.97,45.78-68.18,43.9c-12.37,0.1299-23.55-5.65-34.99-9.51
	c8.36,12.29,18.33,24.07,20.82,39.19c-14.86,5.86-32.25,4.32-45.87-4.07c-12.8-7.58-20.6-20.64-29.16-32.29
	c-4.29,11.69-10.88,22.31-16.36,33.4c-8.65,32.81-12.25,71.01,7.79,100.56c19.06,31.82,60.3,46.76,95.63,36.66
	c26.64-6.34,52.46-24.46,59.66-52.08c8.52-22.23-1.93-51.69-25.44-59.57c-14.86-7.41-38.37,5.4-32.68,23.47
	c0.77,7.75,10.02,8.69,16.11,9.81c3.64-4.93,7.23-9.94,10.92-14.8199c-0.86,5.48-1.76,10.96-2.79,16.4399
	c-10.53,2.91-25.61,3.73-29.03-9.59c-7.5-20.09,17-36.57,35.16-30.88c31.43,6.68,43.17,46.08,30.4,73.06
	c-24.28,58.59-114.43,69.98-154.08,21.07c-27.28-29.25-27.5-72.2-18.33-108.86c3.85-9.08-6-14.86-9.9-21.8
	c-11.82-15.5-8.56-36.87-1.67-53.7c4.71-11.48,15.85-18.8,20.69-30.07c-0.52-6.89-7.54-9.33-12.25-12.93
	c-9.46,6.3-19.44,14.26-20.9,26.38c-0.94,17.2599,2.83,35.42-4.24,51.8199c-4.41,11.5601-13.96,19.92-22.4,28.57
	c-12.8-8.06-16.01-22.83-19.61-36.41c-9.94,17.78-21.97,36.19-41.84,43.9C66.66,716.68,31.07,723.4,1.05,742.85
	c16.62-30.41,25.87-63.81,37.35-96.28c7.28-21.37,26.72-34.56,45.48-45.14c-13.53-3.38-29.51-5.65-36.1-19.87
	c10.87-10.7,22.52-22.22,38.24-24.92c18.41-5.27,40.26,5.48,56.31-7.62c7.03-5.4,15.55-17.78,4.72-24.12
	c-9.3-5.95-16.24,5.7-23.22,10.11c-21.92,19.06-56.7,19.23-78.11-0.81c-28.39,9.12-58.84,17.47-88.69,10.62
	c-29.6-8.05-57.09-30.28-65.87-60.3l-4.2-13.88c-3.55-35.07,7.24-75.37,39.1-94.51c23.82-15.76,60.82-14.01,76.92,11.77
	c11.78,15.72,5.61,47.5-17.39,47.24c-15.42,3.56-26.63-17.51-15.67-28.52c4.62-5.05,10.96-3.08,16.23-0.51
	c-3.55,1.02-10.71,3.12-14.26,4.19c0.25,5.74-3.13,14.18,3.6,17.56c10.66,9.04,27.02-2.23,27.83-14.65
	c4.37-22.91-18.37-41.41-39.53-42.56c-28.99-0.69-55.46,19.74-65.22,46.55c-7.07,14.39-6.85,30.41-7.46,45.87l5,20.36h-0.01
	c1.19,2.56,1.91,5.45,3.24,7.86c9.98,24.54,33.53,41.41,58.5,48.3c24.67,7.03,50.28-0.04,74.26-6.33
	c10.66-1.97,15.76-12.81,24.84-17.56c6.04-2.74,12.63-4.03,18.97-5.87c-12.42-9.55-27.02-17.6-34.73-31.82
	c-7.58-13.23-8.31-29.21-4.28-43.68c15.46,0.94,27.19,11.52,39.57,19.48c-6-17.21-13.11-35.8-6.81-54.09
	c11.09-43.76,65.57-68.6,105.91-48.26c20.51,7.67,35.97,31.26,28.95,53.02c-4.93,15.24-26.25,23.34-37.47,9.59
	c6.08-5.09,19.61-6.94,17.25-17.43c-2.74-18.76-26.85-27.02-42.65-18.93c-24.03,9.85-31.69,42.66-16.19,63.04
	c16.7,28.91,56.87,31.82,83.98,16.88c16.45-8.53,26.73-26.3,45.14-31.48c20.17-7.45,45.4-1.76,57.6,16.7
	c13.96,21.46,8.27,51.95-10.06,69.16c-20.69,19.7-32.08,50.97-22.19,78.72c9.34,23.98,38.51,42.8199,63.86,32.03
	c20.3-8.05,33.49-36.01,18.07-54.39c-5.05-8.56-14.69-9.98-23.81-8.99c-2.44,5.61-4.88,11.26-7.41,16.87
	c-9.34-5.91-11.61-18.5-4.71-27.32C337.41,531.24,363.96,535.27,377.75,547.94z M256.12-250.84
	c-30.53-17.99-61.62-35.12-90.66-55.51c18.72,29,36.23,58.72,53.36,88.65c9.55,14.01,20.56,34.14,40.26,32.55
	c8.69,0.56,9.12-9.51,11.56-15.37c5.87-2.53,15.8-2.83,15.42-11.52C287.77-230.54,269.36-241.72,256.12-250.84z M357.83-395.51
	c37.73,18.97,53.19,70.96,30.5,106.98c-10.45,21.03-44.16,33.92-61.29,13.7c-6.21-6.76-8.61-26.25,3.73-26.08
	c4.28,6.56,8.35,18.03,18.5,14.01c19.61-6.26,25.1-33.24,12.55-48.61c-12.55-20-41.29-23.47-59.66-9.51
	c-26,15.12-31.78,50.37-20.08,76.4c6.93,20.09,27.36,31.31,34.47,51.22c6.17,17.69,4.33,39.66-9.59,53.28
	c-13.62,14.39-36.15,16.14-54.05,9.93c-18.76-6.59-29.34-25.61-47.71-32.97c-23.64-11.44-55.33-10.15-73.49,10.58
	c-16.96,16.7-20.3,47.4-1.2,63.81c14.65,16.44,46.6,13.27,53.41-9c4.07-10.02-7.67-13.53-13.62-18.5
	c-1.88-10.36,13.36-9.42,19.74-6.81c20.17,7.75,19.45,34.82,8.44,49.94c-12.16,17.09-34.26,24.71-54.56,25.35
	c-35.03,0.3-69.04-25.74-75.5-60.64c-4.29-17.09,3.12-33.7,8.31-49.64c-11.4,7.5-21.93,17.31-35.59,20.43
	c-9.3-4.54-7.11-17.98-6.08-26.59c2.99-22.79,22.56-37.35,40.77-48.48c-14.31-2.96-26.26-10.66-36.06-21.29
	c-18.63-7.1-38.63-11.22-58.59-11.64c-35.8-1.07-71.86,21.58-84.24,55.54c-12.42,31.52-4.92,69.81,17.73,94.82
	c17.86,19.06,50.11,28.56,72.81,12.59c14.51-9.12,22.39-30.75,10.87-45.23c-6.21-8.39-17.3-5.86-25.91-3.89
	c-4.45,10.87,2.66,19.01,9.34,26.81c-14.48-1.03-21.54-18.46-11.35-28.91c12.81-13.45,35.5-1.41,37.47,15.29
	c5.36,23.21-15.24,44.84-37.21,48.39c-27.07,4.71-54.56-11.05-68.87-33.62c-14.98-22.74-18.07-51.47-12.8-77.77
	c9.76-42.53,53.7-72.29,96.57-69.51c20.64,0.82,40.09,8.23,60.09,12.38c14.13-8.39,29.38-17.77,46.63-13.28
	c19.58,0.48,32.85,15.76,47.97,25.66c6.98-0.39,11.86-5.1,12.16-12.12c-3.85-12.46-17.09-21.59-30.1-21.03
	c-15.04,0.39-30.58,1.88-45.01-3.43c-12.3-4.24-21.25-14.13-29.98-23.21c8.35-12.5,22.87-16.31,36.83-18.63
	c-18.2-10.66-37.48-22.91-45.1-43.72C27-404.97,18.57-438.94,1.35-469.3c30.41,17.26,64.45,25.61,96.96,37.82
	c20.81,7.62,32.72,27.19,43.9,44.96c2.82-12.84,4.11-30.36,18.63-35.54c16.61,11.43,27.7,31.43,26.8,51.86
	c0.73,12.76-3.51,26.94,4.03,38.37c5.27,8.52,16.49,18.29,26.17,9.85c6.76-9.33-3.34-16.66-8.57-23.55
	c-20.51-22.61-21.63-61.76,3.56-81.54c-5.7-28.91-12-60.09-0.43-88.48c12.07-30.28,40.04-54.95,73.06-58.67
	c38.29-5.06,81.97,13.32,97.9,50.06c10.53,23.17,6.08,54.43-16.49,68.78c-15.42,11.39-42.4,7.62-48.99-11.99
	c-5.83-13.88,10.23-31.35,24.24-24.03c8.69,2.27,7.96,12.21,7.11,19.23c-3.47-6.64-6.56-18.41-16.58-15.5
	c-17.34,4.5-10.75,30.15,4.67,32.5c30.06,8.23,53.83-28,45.18-54.77c-8.61-42.01-55.63-64.67-95.54-59.4
	c-41.24,4.2-74.31,42.65-75.38,83.51c-0.55,19.49,1.29,39.36,7.33,57.9c6.46,10.15,12.2,20.73,14.43,32.72
	c10.23-12.85,18.54-28.48,34.13-35.63c12.46-6.98,27.11-5.87,40.69-3.9c1.45,16.19-11.52,27.8-19.15,40.6
	C310.64-403.47,336.42-408.01,357.83-395.51z"/>
</svg>
